<svg width="19" height="21" viewBox="0 0 19 21" fill="none" xmlns="http://www.w3.org/2000/svg">
<path d="M16.5748 7.71729C16.5748 7.71729 16.0318 14.4523 15.7168 17.2893C15.5668 18.6443 14.7298 19.4383 13.3588 19.4633C10.7498 19.5103 8.13779 19.5133 5.52979 19.4583C4.21079 19.4313 3.38779 18.6273 3.24079 17.2963C2.92379 14.4343 2.38379 7.71729 2.38379 7.71729" stroke="#666666" stroke-width="1.5" stroke-linecap="round" stroke-linejoin="round"/>
<path d="M17.958 4.48877H1" stroke="#666666" stroke-width="1.5" stroke-linecap="round" stroke-linejoin="round"/>
<path d="M14.6903 4.489C13.9053 4.489 13.2293 3.934 13.0753 3.165L12.8323 1.949C12.6823 1.388 12.1743 1 11.5953 1H7.36233C6.78333 1 6.27533 1.388 6.12533 1.949L5.88233 3.165C5.72833 3.934 5.05233 4.489 4.26733 4.489" stroke="#666666" stroke-width="1.5" stroke-linecap="round" stroke-linejoin="round"/>
</svg>
