<svg width="24" height="24" viewBox="0 0 24 24" fill="none" xmlns="http://www.w3.org/2000/svg">
<g clip-path="url(#clip0)">
<path d="M16.8703 8.12895C16.8321 8.12898 16.7949 8.11738 16.7635 8.09569C16.7321 8.074 16.7081 8.04325 16.6947 8.00755C16.6812 7.97185 16.679 7.9329 16.6882 7.8959C16.6975 7.85889 16.7178 7.8256 16.7465 7.80045C17.3145 7.30252 17.9952 6.95037 18.7297 6.77445C18.7785 6.76495 18.8291 6.77524 18.8704 6.80305C18.9116 6.83087 18.9402 6.87393 18.9496 6.92276C18.9591 6.97159 18.9489 7.0222 18.921 7.06345C18.8932 7.10469 18.8502 7.1332 18.8013 7.1427C18.1328 7.30828 17.5132 7.63038 16.9936 8.08245C16.9596 8.11254 16.9157 8.12909 16.8703 8.12895Z" fill="white"/>
<path d="M11.3157 17.9627C11.2767 17.9627 11.2376 17.9622 11.1985 17.9612C10.4812 17.9441 9.77822 17.757 9.14726 17.4155C8.5163 17.0739 7.97535 16.5876 7.56885 15.9964C7.04325 16.4634 6.41651 16.8023 5.73787 16.9863C5.05924 17.1703 4.34718 17.1944 3.65764 17.0568C2.96809 16.9192 2.31984 16.6236 1.76381 16.1932C1.20777 15.7628 0.759099 15.2094 0.453025 14.5764C0.146951 13.9433 -0.00818428 13.248 -0.000194608 12.5449C0.00779506 11.8418 0.178692 11.1501 0.499072 10.5242C0.819452 9.89831 1.28059 9.35521 1.84626 8.93757C2.41193 8.51993 3.06673 8.23914 3.75922 8.11724C3.75154 7.98843 3.7491 7.86187 3.75229 7.73924C3.77183 6.95396 3.99443 6.18712 4.39838 5.51342C4.80234 4.83972 5.37389 4.28213 6.05737 3.89494C6.74085 3.50776 7.51295 3.30419 8.29848 3.30405C9.084 3.30392 9.85618 3.50723 10.5398 3.89418C11.0621 3.04006 11.8517 2.38215 12.786 2.02245C13.7204 1.66275 14.7473 1.62137 15.7075 1.90472C16.6678 2.18807 17.5077 2.78032 18.0971 3.58964C18.6865 4.39896 18.9924 5.38012 18.9673 6.38099C18.964 6.51112 18.9546 6.64349 18.939 6.77849C19.7978 6.82706 20.6324 7.08145 21.3723 7.5202C22.1121 7.95895 22.7357 8.5692 23.1902 9.29948C23.6448 10.0298 23.917 10.8586 23.9841 11.7162C24.0511 12.5738 23.9109 13.4349 23.5753 14.2269C23.2397 15.0189 22.7185 15.7186 22.0558 16.267C21.3931 16.8154 20.6082 17.1963 19.7673 17.3777C18.9265 17.5591 18.0543 17.5356 17.2245 17.3092C16.3946 17.0828 15.6314 16.6602 14.9991 16.077C14.5798 16.662 14.0267 17.1384 13.386 17.4664C12.7453 17.7944 12.0355 17.9646 11.3157 17.9627ZM7.63954 15.4089L7.76291 15.6082C8.1328 16.2066 8.64794 16.7018 9.26047 17.0477C9.873 17.3936 10.563 17.5791 11.2665 17.5869C11.9699 17.5946 12.6638 17.4245 13.2839 17.0922C13.9039 16.7599 14.4299 16.2763 14.8129 15.6862L14.9393 15.492L15.103 15.6561C15.6788 16.2334 16.3873 16.6608 17.1665 16.9008C17.9458 17.1409 18.772 17.1862 19.5729 17.0329C20.3737 16.8797 21.1248 16.5324 21.7603 16.0216C22.3958 15.5107 22.8965 14.8519 23.2184 14.1027C23.5402 13.3536 23.6736 12.5369 23.6067 11.7243C23.5398 10.9116 23.2748 10.1278 22.8347 9.44134C22.3947 8.75488 21.7931 8.18676 21.0826 7.7867C20.3721 7.38664 19.5744 7.16685 18.7592 7.14656H18.72L18.5053 7.14224L18.5393 6.92962C18.569 6.74491 18.5866 6.55844 18.5918 6.37143C18.6152 5.43783 18.3248 4.52335 17.767 3.77431C17.2093 3.02526 16.4164 2.48492 15.5153 2.23974C14.6141 1.99456 13.6568 2.05869 12.7964 2.42189C11.936 2.78509 11.2223 3.42636 10.7695 4.24312L10.6737 4.41562L10.5062 4.31099C9.84542 3.89765 9.08199 3.67782 8.30256 3.67645C7.52313 3.67508 6.75893 3.89222 6.09667 4.30323C5.43442 4.71424 4.90064 5.30266 4.55592 6.00171C4.21119 6.70076 4.06932 7.48245 4.14641 8.25806L4.16366 8.43768L3.98479 8.46168C3.32975 8.55061 2.70521 8.79386 2.16259 9.1714C1.61997 9.54895 1.17479 10.05 0.863711 10.6333C0.552629 11.2165 0.384544 11.8653 0.373295 12.5263C0.362047 13.1872 0.507958 13.8414 0.799012 14.4349C1.09007 15.0284 1.51794 15.5443 2.0474 15.9401C2.57686 16.3359 3.19276 16.6003 3.84439 16.7114C4.49601 16.8226 5.16473 16.7774 5.79546 16.5795C6.4262 16.3817 7.00091 16.0368 7.47229 15.5734L7.63954 15.4089Z" fill="white"/>
<path d="M5.58917 8.73115C5.56831 8.73113 5.54759 8.72764 5.52786 8.72084C5.02482 8.55094 4.49751 8.46393 3.96655 8.46322C3.94182 8.46451 3.91709 8.46079 3.89383 8.45229C3.87057 8.44379 3.84927 8.43068 3.8312 8.41375C3.81313 8.39682 3.79867 8.37642 3.78868 8.35376C3.77868 8.3311 3.77337 8.30666 3.77305 8.28191C3.77225 8.25729 3.7763 8.23277 3.78498 8.20972C3.79366 8.18668 3.80679 8.16557 3.82363 8.1476C3.84046 8.12964 3.86068 8.11516 3.88311 8.105C3.90554 8.09485 3.92975 8.08921 3.95436 8.08841C4.53116 8.08651 5.10427 8.18041 5.6503 8.36628C5.69232 8.38068 5.72786 8.40953 5.75059 8.44768C5.77333 8.48584 5.78178 8.53083 5.77444 8.57463C5.7671 8.61844 5.74445 8.65822 5.71052 8.68688C5.67659 8.71555 5.63359 8.73123 5.58917 8.73115Z" fill="white"/>
<path d="M17.6024 22.5321H6.39795C6.34822 22.5321 6.30053 22.5123 6.26537 22.4772C6.2302 22.442 6.21045 22.3943 6.21045 22.3446V14.3297C6.21045 14.301 6.21707 14.2726 6.22978 14.2468C6.24249 14.221 6.26096 14.1985 6.28376 14.181L11.8861 9.87472C11.9188 9.84957 11.959 9.83594 12.0003 9.83594C12.0416 9.83594 12.0817 9.84957 12.1144 9.87472L17.7168 14.181C17.7395 14.1986 17.758 14.2211 17.7706 14.2469C17.7833 14.2726 17.7899 14.301 17.7899 14.3297V22.3446C17.7899 22.3943 17.7701 22.442 17.735 22.4772C17.6998 22.5123 17.6521 22.5321 17.6024 22.5321ZM6.58545 22.1571H17.4149V14.422L11.9999 10.2598L6.58507 14.4223L6.58545 22.1571Z" fill="white"/>
<path d="M13.5283 22.5321H10.4698C10.4201 22.5321 10.3724 22.5124 10.3373 22.4772C10.3021 22.442 10.2823 22.3943 10.2823 22.3446V17.6333C10.2823 17.5836 10.3021 17.5359 10.3373 17.5007C10.3724 17.4656 10.4201 17.4458 10.4698 17.4458H13.5283C13.5781 17.4458 13.6258 17.4656 13.6609 17.5007C13.6961 17.5359 13.7158 17.5836 13.7158 17.6333V22.3446C13.7158 22.3943 13.6961 22.442 13.6609 22.4772C13.6258 22.5124 13.5781 22.5321 13.5283 22.5321ZM10.6573 22.1571H13.3408V17.8208H10.6573V22.1571Z" fill="white"/>
</g>
<defs>
<clipPath id="clip0">
<rect width="24" height="24" fill="white"/>
</clipPath>
</defs>
</svg>
