<svg width="24" height="24" viewBox="0 0 24 24" fill="none" xmlns="http://www.w3.org/2000/svg">
<path d="M18.1073 5.24185C18.273 5.35214 18.4944 5.3445 18.6527 5.22403C18.8018 5.11055 18.8683 4.91157 18.82 4.73105C18.7682 4.5375 18.5928 4.39528 18.3928 4.38445C18.1937 4.37367 18.0053 4.4948 17.932 4.67991C17.852 4.88161 17.9249 5.12232 18.1073 5.24185Z" fill="#666666"/>
<path d="M20.1492 6.17626C19.9927 5.97006 19.6987 5.92951 19.4924 6.08612C19.2862 6.24254 19.2458 6.53659 19.4023 6.74288C21.2552 9.18562 22.266 12.0805 22.3361 15.135L20.5157 15.7127C20.323 14.3303 20.0141 13.041 19.5953 11.8731C19.5953 11.873 19.5953 11.8729 19.5952 11.8729C19.1687 10.682 18.6171 9.58743 17.9556 8.61928C17.9553 8.61895 17.9551 8.61867 17.9549 8.61834C15.7344 5.3687 12.2005 3.39293 7.44517 2.74053L8.02505 0.941291C11.096 1.00982 14.008 2.00713 16.4669 3.83604C16.551 3.89852 16.649 3.92871 16.7463 3.92871C16.8894 3.92871 17.0308 3.86332 17.1228 3.73967C17.2773 3.53192 17.2341 3.23834 17.0264 3.08379C14.314 1.06635 11.0837 0 7.68488 0C7.4814 0 7.30112 0.131296 7.23873 0.324982L3.63875 11.4951L2.39582 15.3513C2.39502 15.3538 2.39427 15.3563 2.39352 15.3588L0.799877 20.3036C0.616643 20.8729 0.76547 21.4903 1.18828 21.9149C1.61536 22.3438 2.23987 22.4964 2.81821 22.3128L9.67036 20.1381V22.0161C9.67036 23.0811 10.5268 23.9707 11.5795 23.9993C11.598 23.9998 11.6165 24 11.635 24C12.1519 24 12.6377 23.8034 13.0082 23.4427C13.3888 23.0723 13.5985 22.5766 13.5985 22.0471V18.8914L16.0608 18.1099V20.2358C16.0608 21.1464 16.806 21.8872 17.7221 21.8872C18.1646 21.8872 18.5811 21.7159 18.8953 21.4045C19.2096 21.0921 19.3828 20.6771 19.3828 20.2358V17.0556L22.9505 15.9235C23.1452 15.8618 23.2775 15.681 23.2775 15.4767C23.2775 12.0904 22.1958 8.87432 20.1492 6.17626ZM17.3739 9.43888C17.8464 10.1756 18.254 10.9866 18.5896 11.8578C18.3937 11.9636 18.1731 12.02 17.9466 12.02C17.2001 12.02 16.5928 11.4128 16.5928 10.6663C16.5928 10.1343 16.9078 9.65769 17.3739 9.43888ZM4.84582 14.623C4.46928 14.9967 3.9612 15.1799 3.44806 15.143L4.51071 11.8458C4.63179 11.9193 4.74438 12.0071 4.84545 12.1074C5.18444 12.4437 5.3711 12.8906 5.3711 13.3656C5.37105 13.8404 5.18454 14.2869 4.84582 14.623ZM3.31091 21.1727C3.31761 20.4412 3.9147 19.8481 4.64773 19.8481C5.08446 19.8481 5.4859 20.0635 5.73264 20.4041L3.31091 21.1727ZM10.9128 18.5123C10.2275 19.1924 9.1125 19.1923 8.42724 18.5123C8.0964 18.184 7.91429 17.7479 7.91429 17.2842C7.91429 16.8204 8.09644 16.3843 8.42724 16.056C8.76989 15.7159 9.21994 15.5459 9.67003 15.5459C10.1201 15.5459 10.5702 15.7159 10.9128 16.056C11.2436 16.3842 11.4258 16.8204 11.4258 17.2842C11.4257 17.7479 11.2436 18.1841 10.9128 18.5123ZM18.7722 16.266C18.5775 16.3278 18.4453 16.5085 18.4453 16.7127V20.2358C18.4453 20.4255 18.3704 20.6044 18.2348 20.7392C18.0979 20.8749 17.9158 20.9497 17.7221 20.9497C17.323 20.9497 16.9983 20.6294 16.9983 20.2358V17.4693C16.9983 17.3198 16.927 17.1793 16.8064 17.091C16.6858 17.0027 16.5302 16.9773 16.3877 17.0225L12.9879 18.1016C12.7932 18.1634 12.661 18.3441 12.661 18.5484V22.0471C12.661 22.3214 12.5521 22.5784 12.3543 22.7709C12.1535 22.9663 11.8886 23.0704 11.6049 23.0621C11.0551 23.0472 10.6079 22.578 10.6079 22.0161V19.7924C10.9602 19.6631 11.2906 19.4582 11.5731 19.1778C11.5731 19.1778 11.5731 19.1778 11.5731 19.1777C12.0826 18.6721 12.3632 17.9996 12.3632 17.2841C12.3632 16.5686 12.0826 15.8961 11.5731 15.3905C10.5238 14.3491 8.8163 14.3491 7.76687 15.3905C7.25734 15.8961 6.97679 16.5686 6.97679 17.2841C6.97679 17.9996 7.25734 18.6721 7.76687 19.1777C7.9306 19.3402 8.11037 19.4773 8.3011 19.5891L6.65317 20.1122C6.26308 19.3867 5.49447 18.9107 4.64773 18.9107C3.39364 18.9107 2.37337 19.931 2.37337 21.1851C2.37337 21.2738 2.37848 21.3619 2.3886 21.4493C2.19088 21.4683 1.9979 21.3995 1.85259 21.2535C1.67582 21.076 1.61587 20.8283 1.69223 20.591L3.15486 16.0528C3.29638 16.0748 3.43822 16.0858 3.57941 16.0858C4.2904 16.0858 4.98218 15.8086 5.50619 15.2886C6.0236 14.7751 6.30855 14.0922 6.30855 13.3657C6.30855 12.6389 6.02346 11.9557 5.50577 11.442C5.29971 11.2375 5.06177 11.0671 4.80345 10.9375L7.15295 3.64746C11.4733 4.20818 14.725 5.89393 16.8324 8.66437C16.1238 9.06159 15.6553 9.82293 15.6553 10.6664C15.6553 11.9298 16.6831 12.9577 17.9465 12.9577C18.2793 12.9577 18.6045 12.8856 18.9015 12.7495C19.2185 13.7515 19.4556 14.8411 19.6087 16.0004L18.7722 16.266Z" fill="#666666"/>
<path d="M12.646 7.9375C12.646 7.1837 12.3504 6.47523 11.8136 5.9425C10.7079 4.84534 8.9088 4.84534 7.80311 5.9425C7.26634 6.47519 6.9707 7.18365 6.9707 7.9375C6.9707 8.6913 7.26634 9.39977 7.80311 9.9325C8.35596 10.4811 9.08215 10.7554 9.80834 10.7554C10.5345 10.7554 11.2607 10.4811 11.8136 9.9325C12.3504 9.39977 12.646 8.6913 12.646 7.9375ZM11.1532 9.26697C10.4117 10.0029 9.20505 10.0029 8.46349 9.26697C8.10536 8.91166 7.90821 8.43953 7.90821 7.9375C7.90821 7.43547 8.10536 6.96334 8.46349 6.60803C8.83427 6.24006 9.3213 6.05612 9.80834 6.05612C10.2954 6.05612 10.7824 6.24011 11.1532 6.60803C11.5113 6.96334 11.7085 7.43547 11.7085 7.9375C11.7085 8.43953 11.5114 8.91166 11.1532 9.26697Z" fill="#666666"/>
<path d="M14.477 11.9601C13.5236 10.9755 11.9418 10.955 10.9509 11.9143C10.8616 12.0008 10.8103 12.1192 10.8083 12.2435C10.8063 12.3678 10.8538 12.4878 10.9402 12.5771L13.7464 15.4751C13.8383 15.5701 13.9606 15.6178 14.0832 15.6178C14.2006 15.6178 14.3182 15.5739 14.4092 15.4858C15.4 14.5265 15.4305 12.9448 14.477 11.9601ZM14.0444 14.4353L11.9892 12.3128C12.5822 12.0138 13.3221 12.1152 13.8035 12.6123C14.285 13.1095 14.3623 13.8523 14.0444 14.4353Z" fill="#666666"/>
</svg>
