<svg width="24" height="24" viewBox="0 0 24 24" fill="none" xmlns="http://www.w3.org/2000/svg">
<path d="M8.75721 4.00012C8.88213 4.00012 9.00316 3.93332 9.06673 3.81567L9.3716 3.25153C9.4639 3.08076 9.40029 2.86753 9.22952 2.77523C9.05862 2.68294 8.84547 2.74664 8.75322 2.91731L8.44835 3.48145C8.35605 3.65222 8.41966 3.8655 8.59043 3.95775C8.64354 3.98648 8.70072 4.00012 8.75721 4.00012Z" fill="#666666"/>
<path d="M12.3471 3.68705V3.0458C12.3471 2.8517 12.1898 2.69434 11.9956 2.69434C11.8015 2.69434 11.6442 2.8517 11.6442 3.0458V3.68705C11.6442 3.88116 11.8015 4.03852 11.9956 4.03852C12.1898 4.03852 12.3471 3.88116 12.3471 3.68705Z" fill="#666666"/>
<path d="M15.2434 3.99554C15.3033 3.99554 15.3639 3.98021 15.4194 3.94806C15.5873 3.85065 15.6445 3.63559 15.5471 3.46768L15.2254 2.91296C15.128 2.74506 14.9129 2.68792 14.745 2.78528C14.5771 2.88268 14.5199 3.09774 14.6173 3.26565L14.939 3.82037C15.0042 3.93273 15.1222 3.99554 15.2434 3.99554Z" fill="#666666"/>
<path d="M24 10.8562V10.5466C24 9.8901 23.6693 9.30964 23.166 8.96221C23.2845 8.86653 23.3913 8.75385 23.4827 8.62457C23.7945 8.18366 23.8728 7.61577 23.6923 7.10553C23.2564 5.87319 22.3504 4.09855 20.5098 2.64233C18.3877 0.963363 15.5263 0.0861445 12.0051 0.0351914C12.0017 0.0351445 11.9983 0.0351445 11.9949 0.0351914C10.4034 0.058207 8.92917 0.252926 7.61306 0.61391C7.42589 0.665238 7.31573 0.858644 7.36706 1.04582C7.41839 1.23299 7.61175 1.34324 7.79897 1.29182C9.05644 0.94691 10.4698 0.760629 12 0.738129C19.6037 0.85016 22.1743 4.92219 23.0295 7.33996C23.1356 7.63977 23.0916 7.96007 22.9087 8.21877C22.7274 8.47522 22.443 8.62232 22.1286 8.62232H1.8712C1.55559 8.62232 1.26975 8.47438 1.08708 8.21638C0.906563 7.96152 0.862219 7.64722 0.965344 7.35416C1.58883 5.58247 3.02063 3.18172 6.30089 1.80604C6.47991 1.73094 6.56419 1.52502 6.48909 1.346C6.414 1.16694 6.20794 1.0828 6.02906 1.1578C4.43184 1.82764 3.09534 2.79543 2.05678 4.03424C1.29258 4.94572 0.702281 5.98419 0.302297 7.12082C0.122484 7.63185 0.199406 8.17925 0.513469 8.62264C0.604922 8.75183 0.713672 8.86518 0.834797 8.96164C0.330984 9.30903 0 9.88977 0 10.5466V10.8562C0 11.7843 0.660422 12.561 1.53595 12.7411L1.52892 14.84C0.656953 15.0229 0 15.7976 0 16.7231V17.0327C0 17.9603 0.659719 18.7366 1.53455 18.9173C1.51097 19.2872 1.52306 19.8875 1.73634 20.5553C2.31117 22.3553 3.86794 23.2126 5.07263 23.6147C5.76736 23.8466 6.5093 23.9642 7.27781 23.9642H16.7222C17.4907 23.9642 18.2326 23.8466 18.9274 23.6147C20.1321 23.2125 21.6889 22.3553 22.2637 20.5553C22.4769 19.8875 22.489 19.2872 22.4655 18.9173C23.3403 18.7366 24 17.9603 24 17.0327V16.7231C24 15.7951 23.3395 15.0191 22.464 14.839V12.7411C23.3396 12.561 24 11.7843 24 10.8562ZM0.702937 17.0327V16.7231C0.702937 16.189 1.04798 15.7349 1.52653 15.5694L1.52583 15.7766C1.52583 16.2755 1.80562 16.7176 2.25595 16.9304C2.70891 17.1445 3.23147 17.0794 3.61955 16.7604C3.80109 16.6112 4.02211 16.4732 4.40667 16.4732C4.44712 16.4732 4.48523 16.4748 4.52241 16.4771V18.2541H1.92427C1.25081 18.2541 0.702937 17.7062 0.702937 17.0327ZM14.7088 14.2835H21.7611V15.7767C21.7611 16.0044 21.6386 16.1982 21.4335 16.295C21.2258 16.3932 20.9952 16.3642 20.8167 16.2175C20.5633 16.0093 20.194 15.7702 19.5829 15.7702C18.8282 15.7702 18.4413 16.0767 18.1 16.3471C17.8003 16.5845 17.5635 16.772 17.0535 16.772C16.5435 16.772 16.3067 16.5845 16.007 16.3471C15.6657 16.0767 15.2788 15.7702 14.5241 15.7702C13.7694 15.7702 13.3656 16.0901 13.0411 16.3471C12.7414 16.5845 12.5047 16.772 11.9948 16.772C11.4847 16.772 11.248 16.5845 10.9484 16.3471C10.6239 16.0901 10.2201 15.7702 9.46547 15.7702C8.71078 15.7702 8.32392 16.0767 7.98253 16.3471C7.76888 16.5163 7.58639 16.6596 7.3148 16.7281V14.7491C7.3148 14.4923 7.52367 14.2835 7.78045 14.2835H13.0607C13.2548 14.2835 13.4122 14.1261 13.4122 13.932C13.4122 13.7379 13.2548 13.5805 13.0607 13.5805H7.78041C7.13602 13.5805 6.61181 14.1047 6.61181 14.7491V19.0776C6.61181 19.4599 6.30084 19.7709 5.91858 19.7709C5.53631 19.7709 5.22534 19.4599 5.22534 19.0776V14.7491C5.22534 14.1047 4.70109 13.5805 4.05675 13.5805H2.23889V12.7805H21.7611V13.5805H14.7088C14.5147 13.5805 14.3573 13.7379 14.3573 13.932C14.3573 14.1261 14.5147 14.2835 14.7088 14.2835ZM4.0567 14.2835C4.31348 14.2835 4.52241 14.4923 4.52241 14.7491V15.7731C4.48477 15.7714 4.44647 15.7702 4.40667 15.7702C3.7957 15.7702 3.42656 16.0091 3.17325 16.2173C2.99466 16.364 2.76408 16.393 2.55623 16.2948C2.35116 16.1979 2.22872 16.0041 2.22872 15.7765V14.2835H4.0567ZM21.594 20.3415C21.2046 21.561 20.2325 22.438 18.7048 22.9479C18.0819 23.1559 17.4149 23.2613 16.7222 23.2613H7.27781C6.58509 23.2613 5.91806 23.1559 5.29523 22.9479C2.3025 21.9489 2.17716 19.7421 2.23392 18.957H4.52245V19.0775C4.52245 19.8474 5.14875 20.4738 5.91862 20.4738C6.6885 20.4738 7.3148 19.8475 7.3148 19.0775V18.957H21.7643C21.7841 19.2572 21.777 19.7685 21.594 20.3415ZM23.2971 16.7231V17.0327C23.2971 17.7062 22.7491 18.2541 22.0757 18.2541H7.31475V17.4456C7.83014 17.3634 8.14008 17.119 8.41894 16.8981C8.71866 16.6607 8.95542 16.4732 9.46542 16.4732C9.97542 16.4732 10.2121 16.6607 10.5118 16.8981C10.8363 17.1551 11.2401 17.475 11.9947 17.475C12.7493 17.475 13.1363 17.1685 13.4776 16.8981C13.7773 16.6607 14.014 16.4732 14.524 16.4732C15.0341 16.4732 15.2708 16.6607 15.5705 16.8981C15.9119 17.1685 16.2988 17.475 17.0535 17.475C17.8081 17.475 18.195 17.1685 18.5364 16.8981C18.8361 16.6607 19.0728 16.4732 19.5828 16.4732C19.9675 16.4732 20.1886 16.6113 20.3703 16.7607C20.7583 17.0795 21.2808 17.1448 21.7338 16.9307C22.1842 16.7179 22.464 16.2757 22.464 15.7768V15.5654C22.9477 15.728 23.2971 16.1854 23.2971 16.7231ZM22.0757 12.0776H1.92427C1.25081 12.0776 0.702891 11.5297 0.702891 10.8562V10.5466C0.702891 9.87313 1.25081 9.32521 1.92427 9.32521H22.0757C22.7491 9.32521 23.2971 9.87313 23.2971 10.5466V10.8562C23.2971 11.5297 22.7492 12.0776 22.0757 12.0776Z" fill="#666666"/>
</svg>
