<svg width="24" height="24" viewBox="0 0 24 24" fill="none" xmlns="http://www.w3.org/2000/svg">
<path d="M23.5312 9.6797H19.6875V8.6875C19.6875 8.42861 19.4776 8.21875 19.2188 8.21875H9.09375C8.83491 8.21875 8.625 8.42861 8.625 8.6875C8.625 8.94639 8.83491 9.15625 9.09375 9.15625H18.75V12.75C18.75 15.9069 17.0645 18.841 14.3429 20.4375H5.34459C2.62298 18.841 0.9375 15.9069 0.9375 12.75V9.1563H4.07812C4.33697 9.1563 4.54688 8.94644 4.54688 8.68755C4.54688 8.42866 4.33697 8.2188 4.07812 8.2188H0.46875C0.209906 8.2188 0 8.42866 0 8.68755V12.75C0 14.5219 0.47625 16.2593 1.37728 17.7742C1.98492 18.796 2.77336 19.6982 3.69666 20.4375H0.46875C0.209906 20.4375 0 20.6474 0 20.9063C0 22.6122 1.38783 24 3.09375 24H17.7188C19.4247 24 20.8125 22.6122 20.8125 20.9063C20.8125 20.6474 20.6026 20.4375 20.3438 20.4375H15.9908C16.8406 19.7571 17.5758 18.9383 18.1613 18.0156H19.4844C21.9743 18.0156 24 15.9899 24 13.5V10.1485C24 9.88956 23.7901 9.6797 23.5312 9.6797ZM19.8237 21.375C19.6091 22.3393 18.7468 23.0625 17.7188 23.0625H3.09375C2.06573 23.0625 1.20347 22.3393 0.988828 21.375H5.21902H14.4685H19.8237ZM19.6875 12.75V12.4922H21.1875V13.5C21.1875 14.4391 20.4235 15.2031 19.4844 15.2031H19.3779C19.5825 14.406 19.6875 13.5818 19.6875 12.75ZM23.0625 13.5C23.0625 15.473 21.4574 17.0781 19.4844 17.0781H18.6866C18.8363 16.7725 18.9699 16.4595 19.0868 16.1406H19.4844C20.9405 16.1406 22.125 14.956 22.125 13.5V12.0235C22.125 11.7646 21.9151 11.5547 21.6562 11.5547H19.6875V10.6172H23.0625V13.5Z" fill="#666666"/>
<path d="M10.2905 2.59422L10.0467 2.28798C9.68862 1.83855 9.68811 1.21028 10.0454 0.760188C10.2064 0.557406 10.1724 0.262563 9.96964 0.101641C9.76681 -0.0593748 9.47201 -0.0253905 9.31104 0.177391C8.68095 0.971266 8.68189 2.07934 9.31334 2.87209L9.55723 3.17833C10.0251 3.76567 10.0258 4.58669 9.55892 5.17492L9.30898 5.48983C9.14801 5.69261 9.18195 5.98745 9.38473 6.14837C9.47093 6.21677 9.57373 6.25 9.67582 6.25C9.81392 6.25 9.95075 6.18925 10.0433 6.07263L10.2933 5.75772C11.0329 4.82575 11.0319 3.52488 10.2905 2.59422Z" fill="#666666"/>
<path d="M12.89 3.64793L12.6461 3.34174C12.2881 2.89226 12.2876 2.26399 12.6449 1.8139C12.8058 1.61112 12.7719 1.31627 12.5691 1.15535C12.3663 0.994336 12.0715 1.02832 11.9105 1.2311C11.2804 2.02498 11.2814 3.13305 11.9128 3.92585L12.1567 4.23209C12.6245 4.81948 12.6252 5.64054 12.1584 6.22873L11.9085 6.54359C11.7475 6.74637 11.7814 7.04121 11.9842 7.20213C12.0704 7.27052 12.1732 7.30371 12.2753 7.30371C12.4134 7.30371 12.5503 7.24291 12.6428 7.12634L12.8927 6.81148C13.6324 5.87955 13.6313 4.57868 12.89 3.64793Z" fill="#666666"/>
<path d="M7.69289 3.64793L7.449 3.34174C7.09097 2.8923 7.09045 2.26399 7.44769 1.8139C7.60866 1.61112 7.57472 1.31627 7.37194 1.1553C7.16911 0.994334 6.87431 1.02837 6.71335 1.23105C6.0833 2.02493 6.08424 3.13305 6.71569 3.9258L6.95958 4.23204C7.42739 4.81943 7.42809 5.64049 6.96127 6.22863L6.71133 6.54349C6.55036 6.74627 6.58425 7.04111 6.78703 7.20208C6.87324 7.27047 6.97599 7.30371 7.07813 7.30371C7.21622 7.30371 7.35305 7.24296 7.44558 7.12638L7.69556 6.81147C8.43525 5.87955 8.43417 4.57868 7.69289 3.64793Z" fill="#666666"/>
<path d="M7.04344 8.35609C6.95625 8.26891 6.83532 8.21875 6.71204 8.21875C6.58875 8.21875 6.46782 8.26891 6.38063 8.35609C6.29349 8.44375 6.24329 8.56422 6.24329 8.6875C6.24329 8.81078 6.29344 8.93172 6.38063 9.01938C6.46782 9.10656 6.58875 9.15625 6.71204 9.15625C6.83532 9.15625 6.95625 9.10656 7.04344 9.01938C7.13105 8.93172 7.18079 8.81125 7.18079 8.6875C7.18079 8.56422 7.13105 8.44328 7.04344 8.35609Z" fill="#666666"/>
<path d="M16.9685 12.2812C16.7096 12.2812 16.4997 12.4911 16.4997 12.75C16.4997 14.49 15.794 16.1999 14.5634 17.4414C14.3812 17.6252 14.3825 17.922 14.5664 18.1043C14.6578 18.1949 14.7771 18.2401 14.8964 18.2401C15.017 18.2401 15.1377 18.1938 15.2293 18.1013C16.6325 16.6857 17.4372 14.7352 17.4372 12.75C17.4372 12.4911 17.2273 12.2812 16.9685 12.2812Z" fill="#666666"/>
<path d="M13.7757 18.7136C13.6485 18.4881 13.3626 18.4085 13.1372 18.5357L13.1265 18.5417C12.901 18.6689 12.8213 18.9548 12.9485 19.1803C13.0346 19.333 13.1935 19.4188 13.3572 19.4188C13.4352 19.4188 13.5143 19.3993 13.5871 19.3583L13.5978 19.3522C13.8233 19.225 13.9029 18.9391 13.7757 18.7136Z" fill="#666666"/>
</svg>
