<svg width="24" height="24" viewBox="0 0 24 24" fill="none" xmlns="http://www.w3.org/2000/svg">
<g clip-path="url(#clip0)">
<path d="M11.2715 18.0752C11.0774 18.0752 10.9199 18.2327 10.9199 18.4268V19.0103C10.9199 19.2046 11.0774 19.3619 11.2715 19.3619C11.4658 19.3619 11.623 19.2046 11.623 19.0103V18.4268C11.623 18.2327 11.4658 18.0752 11.2715 18.0752Z" fill="#666666"/>
<path d="M6.8263 18.0752C6.6322 18.0752 6.47473 18.2327 6.47473 18.4268V19.0103C6.47473 19.2046 6.6322 19.3619 6.8263 19.3619C7.02058 19.3619 7.17787 19.2046 7.17787 19.0103V18.4268C7.17805 18.2327 7.02058 18.0752 6.8263 18.0752Z" fill="#666666"/>
<path d="M9.77589 18.5583C9.71638 18.5192 9.45326 18.4179 9.28902 18.659C9.2101 18.7748 9.09548 18.7887 9.04879 18.7887C9.00228 18.7887 8.88546 18.7761 8.80874 18.659C8.70199 18.4968 8.48409 18.4516 8.32186 18.5583C8.15945 18.6649 8.1144 18.8828 8.22097 19.045C8.40481 19.3248 8.71425 19.4918 9.04879 19.4918C9.3835 19.4918 9.69295 19.3248 9.8766 19.045C9.98335 18.8828 9.93812 18.6649 9.77589 18.5583Z" fill="#666666"/>
<path d="M7.43274 14.8819C7.60413 14.9727 7.81708 14.9075 7.90808 14.7359C7.99909 14.5643 7.93372 14.3516 7.76215 14.2606C7.5025 14.1231 7.3476 13.9513 7.3476 13.8013C7.3476 13.6512 7.5025 13.4796 7.76215 13.3419C8.09522 13.1652 8.56452 13.064 9.04938 13.064C9.53443 13.064 10.0035 13.1652 10.3368 13.3419C10.5963 13.4796 10.7513 13.6512 10.7513 13.8013C10.7513 13.9513 10.5963 14.1231 10.3368 14.2606C10.0035 14.4373 9.53443 14.5387 9.04938 14.5387C8.85529 14.5387 8.69782 14.696 8.69782 14.8903C8.69782 15.0844 8.85529 15.2418 9.04938 15.2418C10.4205 15.2418 11.4545 14.6224 11.4545 13.8013C11.4545 12.9801 10.4205 12.3608 9.04938 12.3608C7.67829 12.3608 6.64429 12.9801 6.64429 13.8013C6.64429 14.2285 6.92426 14.6121 7.43274 14.8819Z" fill="#666666"/>
<path d="M22.6115 9.57699C20.9754 8.46517 19.0651 7.8774 17.0868 7.8774C16.5814 7.8774 16.0806 7.91604 15.5877 7.99166L17.6248 6.42116C18.1455 6.01979 18.2532 5.28682 17.8701 4.7527C17.4869 4.2184 16.7581 4.08546 16.2108 4.44984L15.0104 5.24965L15.8391 4.06898C16.2169 3.53102 16.1017 2.79915 15.5769 2.40309C15.0523 2.00685 14.3168 2.09675 13.9028 2.60743L7.94671 9.95474L6.40587 10.981C5.39769 11.2729 4.50725 12.0647 4.23497 12.4272L0.826823 14.6974C0.404764 14.9784 0.122232 15.408 0.0312282 15.9068C-0.0597753 16.4057 0.0528347 16.9073 0.348367 17.3193C0.6439 17.7314 1.11521 18.0753 1.84874 18.0923C1.83409 18.6797 2.09996 19.2442 2.58592 19.6119C3.30644 20.1572 4.01048 19.967 4.16338 19.9276C4.4384 20.3291 4.84636 20.6941 5.3737 21.0026C6.36101 21.5801 7.66637 21.8982 9.04919 21.8982C10.432 21.8982 11.7374 21.5801 12.7249 21.0026C13.3838 20.6172 13.8563 20.1435 14.1159 19.6202C14.3078 19.6883 15.0876 19.9538 15.7769 19.3794C15.8494 19.3189 15.9515 19.3237 16.0277 19.3794C16.337 19.6051 16.7032 19.7245 17.0868 19.7245C17.4704 19.7245 17.8366 19.6051 18.1457 19.3794C18.2221 19.3237 18.3204 19.3239 18.3967 19.3794C18.7058 19.6051 19.072 19.7245 19.4558 19.7245C20.1648 19.7245 20.8095 19.3061 21.0986 18.6585C21.1322 18.5832 21.203 18.5345 21.2834 18.5316C21.7963 18.5124 22.2775 18.2747 22.6038 17.8792C22.9273 17.487 23.07 16.9734 22.9949 16.47C22.9832 16.3911 23.0163 16.3136 23.0835 16.2629C23.5334 15.9227 23.794 15.4045 23.798 14.8413C23.8004 14.5014 23.703 14.1706 23.5198 13.8836C24.4178 12.4461 24.0252 10.5377 22.6115 9.57699ZM17.2076 8.58163C17.518 9.28146 17.6447 10.0529 17.5735 10.8263C17.5484 11.0984 17.3067 11.2991 17.0346 11.2744C17.0297 11.2738 16.5494 11.2081 16.5869 10.7307C16.6461 9.98184 16.4787 9.25564 16.113 8.63235C16.4349 8.59811 17.1674 8.58108 17.2076 8.58163ZM15.3478 8.74679C15.7507 9.29501 15.9413 9.97195 15.886 10.6756C15.8212 11.4967 16.3176 11.9795 17.0809 11.9795C17.6927 11.9795 18.2166 11.5117 18.2737 10.8908C18.3451 10.1166 18.2442 9.34353 17.9825 8.62447C18.4989 8.67483 19.0076 8.76894 19.5042 8.90517C19.7307 9.50301 19.7471 10.169 19.5474 10.7989C19.2983 11.5838 19.8387 12.1678 20.3091 12.3095C21.158 12.5656 21.6577 12.0518 21.8243 11.5494C21.8629 11.4331 21.8977 11.3147 21.9279 11.1971C21.9761 11.0091 21.8627 10.8173 21.6747 10.7692C21.4865 10.721 21.2949 10.8344 21.2468 11.0224C21.2206 11.1244 21.1904 11.2271 21.1571 11.328C21.071 11.5873 20.7897 11.7283 20.5305 11.6422C20.5259 11.6408 20.0729 11.4677 20.2177 11.0114C20.41 10.4052 20.4396 9.77053 20.3117 9.16811C20.9783 9.42025 21.6172 9.75131 22.2163 10.1583C23.3437 10.9246 23.6376 12.4651 22.8713 13.5927C22.4097 14.272 20.8785 15.1934 19.4322 14.2445C17.9822 13.2935 16.1392 13.2948 14.7368 14.2478C14.6129 14.3321 14.4828 14.404 14.3479 14.4639V13.8011C14.3479 13.3969 14.2322 13.0067 14.0108 12.644C14.6431 12.5065 15.0554 11.8874 14.9335 11.2484C14.7903 10.4975 14.4865 9.79214 14.0469 9.17947C14.0467 9.17947 14.9695 8.82003 15.3478 8.74679ZM13.3245 9.39114C13.7867 9.96462 14.1029 10.6471 14.2428 11.3802C14.2939 11.6485 14.1172 11.9085 13.8489 11.9597C13.844 11.9607 13.3643 12.0304 13.2683 11.5613C13.1383 10.9254 12.8408 10.3378 12.4167 9.86593C12.7113 9.69015 13.0145 9.53176 13.3245 9.39114ZM11.821 10.2583C12.1092 10.555 12.3317 10.9166 12.4714 11.3136C12.1063 11.1259 11.7053 10.9704 11.2772 10.8507C11.4241 10.6256 11.6072 10.4257 11.821 10.2583ZM14.449 3.05018C14.6231 2.8354 14.9326 2.7975 15.1532 2.96412C15.374 3.13075 15.4225 3.43855 15.2636 3.66487L13.3967 6.32448L9.91436 8.64406L14.449 3.05018ZM16.6007 5.03505C16.8308 4.88179 17.1375 4.93764 17.2986 5.16249C17.4598 5.38716 17.4146 5.69551 17.1954 5.86434L13.8953 8.40859C13.0753 8.69021 12.2914 9.08132 11.5621 9.57681C11.1395 9.8641 10.7969 10.2435 10.5567 10.6866C9.61736 10.5229 8.51855 10.5681 8.25908 10.5914L16.6007 5.03505ZM5.72856 12.0584C6.61003 11.543 7.78924 11.2592 9.04919 11.2592C10.3091 11.2592 11.4883 11.543 12.3698 12.0584C13.192 12.5393 13.6446 13.1582 13.6446 13.8009C13.6446 14.4438 13.1918 15.0627 12.3698 15.5435C11.4883 16.0589 10.3091 16.3427 9.04919 16.3427C7.78924 16.3427 6.61003 16.0589 5.72856 15.5435C4.9066 15.0627 4.45378 14.4438 4.45378 13.8009C4.45378 13.1582 4.9066 12.5393 5.72856 12.0584ZM0.919657 16.9095C0.430582 16.1584 0.954814 15.4569 1.21665 15.2826L3.76182 13.587C3.75468 13.6579 3.75066 16.229 3.75066 16.229L2.55607 17.1501C2.30687 17.3421 1.4091 17.6606 0.919657 16.9095ZM2.56724 17.9502C2.71464 17.8885 3.75066 17.1169 3.75066 17.1169V18.6532C3.75066 18.8645 3.78252 19.0719 3.84441 19.2737C2.79759 19.3314 2.47111 18.6371 2.56724 17.9502ZM12.3698 20.3956C11.4883 20.9111 10.3091 21.195 9.04919 21.195C7.78924 21.195 6.61003 20.9111 5.72856 20.3956C4.9066 19.9148 4.45378 19.2959 4.45378 18.6532V15.434C4.70006 15.6955 5.00804 15.9364 5.3737 16.1503C6.36101 16.7278 7.66637 17.0459 9.04919 17.0459C10.432 17.0459 11.7374 16.7278 12.7249 16.1503C13.0903 15.9366 13.3983 15.6957 13.6446 15.434V18.6532C13.6446 19.2959 13.192 19.9148 12.3698 20.3956ZM22.6594 15.7021C22.3994 15.9218 22.25 16.2411 22.2994 16.5736C22.345 16.8802 22.2583 17.1929 22.0614 17.4317C21.8627 17.6725 21.5696 17.8173 21.2572 17.8288C20.9069 17.842 20.6002 18.05 20.4565 18.3719C20.2805 18.7665 19.8876 19.0214 19.4558 19.0214C19.2222 19.0214 18.9993 18.9489 18.8115 18.8116C18.4885 18.5757 18.0543 18.5757 17.7311 18.8116C17.5431 18.9489 17.3203 19.0214 17.0868 19.0214C16.8532 19.0214 16.6303 18.9489 16.4424 18.8116C16.1193 18.5757 15.693 18.5865 15.3621 18.8116C14.911 19.1184 14.4504 18.9969 14.3265 18.9494C14.3404 18.8517 14.3477 15.2172 14.3477 15.2172C14.6246 15.1253 14.8873 14.9955 15.132 14.8294C16.2983 14.0365 17.835 14.0378 19.0464 14.8325C19.6464 15.2262 20.2331 15.3564 20.7467 15.3564C22.094 15.3564 22.7048 14.7525 23.0275 14.4632C23.0723 14.5824 23.3166 15.1465 22.6594 15.7021Z" fill="#666666"/>
</g>
<defs>
<clipPath id="clip0">
<rect width="24" height="24" fill="white"/>
</clipPath>
</defs>
</svg>
