<svg width="12" height="24" viewBox="0 0 12 24" fill="none" xmlns="http://www.w3.org/2000/svg">
<path d="M11.372 7.92266C11.1511 7.23711 10.5698 6.7885 9.75056 6.65611C9.97505 6.24687 10.1287 5.62266 9.92873 4.92851C9.59126 3.75682 8.47029 3.74162 7.86091 3.73649C8.11817 3.24119 8.37086 2.45896 8.19197 1.68021C8.06892 1.14463 7.67176 0.443152 6.47864 0.143408C5.76636 -0.0354868 5.01434 -0.00875338 4.62945 0.023107C4.44122 0.0388541 4.28924 0.184789 4.26782 0.370092C4.24621 0.557593 4.35791 0.729712 4.53973 0.788672C4.81622 0.878028 5.16559 1.06827 5.25824 1.4658C5.37085 1.9492 5.21045 2.63108 2.95037 3.62223C2.18535 3.95768 1.71715 4.43156 1.55913 5.0305C1.37291 5.73564 1.66716 6.42961 1.95757 6.89873C1.71624 6.96593 1.4414 7.08055 1.19475 7.25395C0.708239 7.59618 0.449327 8.07518 0.446214 8.63933C0.442369 9.34154 0.676012 9.80993 0.953051 10.1185C0.908923 10.2036 0.883654 10.2999 0.883654 10.4021V10.8578C0.883654 11.6913 1.45 12.3948 2.21795 12.6045L2.71893 14.4724C2.71893 14.4725 2.71911 14.4725 2.71911 14.4727L4.35699 20.5804C4.35718 20.5806 4.35718 20.5808 4.35718 20.5811L5.09546 23.3338C5.20239 23.7322 5.55158 24.0001 5.96411 24.0001C6.37684 24.0001 6.72602 23.7322 6.83277 23.3336L9.71028 12.6045C10.4784 12.3948 11.0448 11.6913 11.0448 10.8578V10.4021C11.0448 10.3034 11.021 10.2104 10.9798 10.1276C11.3809 9.72112 11.7283 9.02788 11.372 7.92266ZM6.15363 23.1516C6.11847 23.2827 6.00952 23.2968 5.9643 23.2968C5.91907 23.2968 5.80994 23.2827 5.77478 23.1516L5.22546 21.1033C5.66547 21.2883 6.11243 21.463 6.56305 21.625L6.15363 23.1516ZM7.33832 18.7338C7.23414 18.6951 7.13013 18.6561 7.02778 18.6168C6.8465 18.5472 6.64307 18.6375 6.57331 18.8187C6.50354 19 6.59382 19.2034 6.77527 19.2732C6.90052 19.3214 7.02778 19.369 7.15558 19.4157L6.74598 20.9431C6.15216 20.728 5.56458 20.491 4.9931 20.2363L4.45807 18.2412C4.7113 18.3703 4.96729 18.4952 5.22363 18.6148C5.27179 18.6371 5.32233 18.6477 5.37195 18.6477C5.50452 18.6477 5.63141 18.5725 5.69092 18.4445C5.77295 18.2683 5.69678 18.059 5.52063 17.9772C5.07806 17.771 4.63806 17.548 4.20959 17.3147L3.63922 15.1879C4.9184 16.0009 6.29389 16.6845 7.74299 17.2257L7.33832 18.7338ZM7.92573 16.5435C6.29627 15.929 4.76404 15.1288 3.36401 14.1622L2.96337 12.6686H3.86059C5.21356 13.6421 6.71283 14.446 8.32344 15.061L7.92573 16.5435ZM8.50654 14.3779C7.30518 13.9142 6.16901 13.3415 5.11377 12.6686H8.96504L8.50654 14.3779ZM10.3067 9.78283H4.3786C4.18432 9.78283 4.02685 9.94012 4.02685 10.1344C4.02685 10.3287 4.18432 10.4861 4.3786 10.4861H10.3414V10.8578C10.3414 11.4183 9.92268 11.8827 9.38161 11.955C9.38142 11.9552 9.38124 11.955 9.38106 11.9552C9.35634 11.9583 9.3318 11.9609 9.30781 11.9625C9.30708 11.9625 9.30617 11.9627 9.30543 11.9627C9.28108 11.9643 9.25728 11.9651 9.2342 11.9651H2.69439C2.67114 11.9651 2.64733 11.9643 2.62298 11.9627C2.62225 11.9627 2.62151 11.9625 2.6206 11.9625C2.59661 11.9609 2.57226 11.9585 2.54754 11.9552C2.54717 11.955 2.54699 11.9552 2.54681 11.955C2.00573 11.8827 1.58696 11.4183 1.58696 10.8578V10.4861H2.73101C2.92529 10.4861 3.08276 10.3287 3.08276 10.1344C3.08276 9.94012 2.92529 9.78283 2.73101 9.78283H1.61828C1.30443 9.53216 1.14678 9.14928 1.14952 8.64318C1.15392 7.84136 2.06103 7.56359 2.37817 7.52953C2.393 7.52806 2.4071 7.52495 2.42156 7.52202C2.56329 7.69597 2.72424 7.88329 2.84985 8.00139C2.91778 8.06511 3.00421 8.09661 3.09063 8.09661C3.18438 8.09661 3.27777 8.05944 3.34698 7.98583C3.47991 7.8441 3.47314 7.62163 3.33142 7.4887C3.14025 7.30907 2.78283 6.85002 2.65649 6.68175C2.44042 6.37047 2.09399 5.75981 2.23919 5.20994C2.33971 4.82872 2.67406 4.51121 3.2329 4.26622C4.66919 3.63633 6.27521 2.73069 5.94324 1.30595C5.88831 1.07102 5.78833 0.878943 5.66547 0.722205C6.42829 0.786109 7.32258 1.03678 7.5066 1.83769C7.65565 2.48661 7.38831 3.15055 7.19019 3.49809C7.05433 3.72313 6.61103 4.34001 6.15821 4.55021C5.98206 4.63206 5.90552 4.84117 5.98737 5.01732C6.04688 5.14549 6.17395 5.22093 6.30652 5.22093C6.35614 5.22093 6.4065 5.21049 6.45447 5.18815C6.8238 5.01677 7.15027 4.69835 7.38868 4.41545C7.39838 4.41728 7.40791 4.41984 7.41779 4.42094C7.54542 4.43724 7.69135 4.43834 7.84589 4.43962C8.55616 4.44566 9.07289 4.49803 9.25306 5.12315C9.40394 5.64738 9.25746 6.10973 9.11079 6.35783C9.03773 6.45635 8.63398 6.98735 8.11122 7.41637C7.96107 7.5396 7.93928 7.76116 8.06251 7.9113C8.13191 7.99608 8.2328 8.04003 8.33442 8.04003C8.41297 8.04003 8.49189 8.01384 8.55726 7.96019C8.81892 7.74541 9.0511 7.51195 9.23622 7.30797C9.26661 7.31493 9.29774 7.31932 9.3296 7.3206C9.84193 7.33965 10.496 7.49694 10.7027 8.13836C10.9408 8.87737 10.8113 9.41643 10.3067 9.78283Z" fill="#666666"/>
</svg>
