<svg width="13" height="13" viewBox="0 0 13 13" fill="none" xmlns="http://www.w3.org/2000/svg">
<path d="M11.0001 9.00016C10.4764 9.00059 9.9737 9.20644 9.6001 9.57349L4.33344 7.22682V7.00016V6.78016L9.6001 4.42682C9.92998 4.75017 10.3616 4.94936 10.8217 4.99057C11.2818 5.03177 11.7419 4.91245 12.124 4.65287C12.5061 4.39329 12.7866 4.00945 12.9177 3.56655C13.0489 3.12365 13.0228 2.64899 12.8437 2.22319C12.6646 1.7974 12.3437 1.44671 11.9354 1.2307C11.5271 1.01469 11.0566 0.946666 10.6038 1.03819C10.1511 1.12971 9.74394 1.37514 9.4516 1.73278C9.15926 2.09043 8.99973 2.53824 9.0001 3.00016V3.22682L3.73344 5.57349C3.45234 5.29733 3.09593 5.11035 2.70895 5.03604C2.32196 4.96173 1.92165 5.00339 1.55826 5.1558C1.19487 5.30821 0.884596 5.56457 0.666395 5.8927C0.448194 6.22083 0.331787 6.6061 0.331787 7.00016C0.331787 7.39421 0.448194 7.77949 0.666395 8.10762C0.884596 8.43575 1.19487 8.69211 1.55826 8.84451C1.92165 8.99692 2.32196 9.03858 2.70895 8.96427C3.09593 8.88996 3.45234 8.70299 3.73344 8.42682L9.0001 10.7802V11.0002C9.0001 11.3957 9.1174 11.7824 9.33716 12.1113C9.55693 12.4402 9.86928 12.6965 10.2347 12.8479C10.6002 12.9993 11.0023 13.0389 11.3903 12.9617C11.7782 12.8846 12.1346 12.6941 12.4143 12.4144C12.694 12.1347 12.8845 11.7783 12.9617 11.3903C13.0388 11.0024 12.9992 10.6002 12.8479 10.2348C12.6965 9.86934 12.4401 9.55698 12.1112 9.33722C11.7823 9.11746 11.3957 9.00016 11.0001 9.00016ZM11.0001 2.33349C11.132 2.33349 11.2608 2.37259 11.3705 2.44584C11.4801 2.5191 11.5656 2.62322 11.616 2.74504C11.6665 2.86685 11.6797 3.0009 11.654 3.13022C11.6282 3.25954 11.5647 3.37833 11.4715 3.47156C11.3783 3.5648 11.2595 3.62829 11.1302 3.65401C11.0008 3.67974 10.8668 3.66654 10.745 3.61608C10.6232 3.56562 10.519 3.48017 10.4458 3.37054C10.3725 3.26091 10.3334 3.13201 10.3334 3.00016C10.3334 2.82335 10.4037 2.65378 10.5287 2.52875C10.6537 2.40373 10.8233 2.33349 11.0001 2.33349ZM2.33344 7.66682C2.20158 7.66682 2.07269 7.62772 1.96306 7.55447C1.85342 7.48122 1.76798 7.3771 1.71752 7.25528C1.66706 7.13346 1.65386 6.99942 1.67958 6.8701C1.7053 6.74078 1.7688 6.62199 1.86203 6.52875C1.95527 6.43552 2.07406 6.37202 2.20338 6.3463C2.3327 6.32058 2.46674 6.33378 2.58856 6.38424C2.71038 6.4347 2.8145 6.52014 2.88775 6.62978C2.961 6.73941 3.0001 6.8683 3.0001 7.00016C3.0001 7.17697 2.92987 7.34654 2.80484 7.47156C2.67982 7.59659 2.51025 7.66682 2.33344 7.66682ZM11.0001 11.6668C10.8682 11.6668 10.7394 11.6277 10.6297 11.5545C10.5201 11.4812 10.4346 11.3771 10.3842 11.2553C10.3337 11.1335 10.3205 10.9994 10.3462 10.8701C10.372 10.7408 10.4355 10.622 10.5287 10.5288C10.6219 10.4355 10.7407 10.372 10.87 10.3463C10.9994 10.3206 11.1334 10.3338 11.2552 10.3842C11.377 10.4347 11.4812 10.5201 11.5544 10.6298C11.6277 10.7394 11.6668 10.8683 11.6668 11.0002C11.6668 11.177 11.5965 11.3465 11.4715 11.4716C11.3465 11.5966 11.1769 11.6668 11.0001 11.6668Z" fill="#EE5019"/>
</svg>
