<svg width="20" height="21" viewBox="0 0 20 21" fill="none" xmlns="http://www.w3.org/2000/svg">
<path fill-rule="evenodd" clip-rule="evenodd" d="M0.877785 0.51111L0.776337 0.5005C0.407155 0.487004 0.0756195 0.748083 0.0108656 1.12222L0.000255814 1.22366C-0.0132403 1.59285 0.247839 1.92438 0.621972 1.98914L2.13098 2.25012L3.04551 13.1459L3.06443 13.3096C3.24843 14.5521 4.31708 15.4861 5.58988 15.4861H16.5019L16.6662 15.4809C17.8626 15.4045 18.8545 14.4998 19.0291 13.2979L19.9781 6.73954L19.9945 6.58889C20.0819 5.38982 19.132 4.34912 17.9089 4.34912H3.81198L3.57725 1.54739L3.55956 1.43654C3.49112 1.14822 3.25673 0.922851 2.95778 0.87111L0.877785 0.51111ZM5.47394 13.9798C4.97867 13.9256 4.58258 13.5279 4.54028 13.0208L3.93798 5.84912H17.9089L17.997 5.85561C18.3128 5.90255 18.5409 6.19782 18.4936 6.52477L17.5446 13.0827L17.5208 13.2C17.4005 13.6585 16.985 13.9861 16.5019 13.9861H5.58988L5.47394 13.9798ZM3.90828 18.5854C3.90828 17.7493 4.58595 17.0704 5.42228 17.0704C6.25849 17.0704 6.93728 17.7492 6.93728 18.5854C6.93728 19.4217 6.25838 20.0994 5.42228 20.0994C4.58606 20.0994 3.90828 19.4216 3.90828 18.5854ZM15.1597 18.5854C15.1597 17.7492 15.8385 17.0704 16.6747 17.0704C17.5109 17.0704 18.1897 17.7492 18.1897 18.5854C18.1897 19.4217 17.5108 20.0994 16.6747 20.0994C15.8386 20.0994 15.1597 19.4217 15.1597 18.5854ZM15.6484 8.79512C15.6484 8.38091 15.3126 8.04512 14.8984 8.04512H12.1254L12.0236 8.05197C11.6575 8.10163 11.3754 8.41543 11.3754 8.79512C11.3754 9.20934 11.7112 9.54512 12.1254 9.54512H14.8984L15.0001 9.53828C15.3662 9.48861 15.6484 9.17482 15.6484 8.79512Z" fill="white"/>
</svg>
