<svg width="28" height="28" viewBox="0 0 28 28" fill="none" xmlns="http://www.w3.org/2000/svg">
<g clip-path="url(#clip0)">
<path d="M1.7504 1.90551C-0.449938 4.19101 0.000395231 6.61884 0.000395231 13.9945C0.000395231 20.1195 -1.06827 26.2597 4.52473 27.7052C6.27123 28.1543 21.7459 28.1543 23.4901 27.7028C25.8187 27.102 27.7134 25.2132 27.9724 21.9197C28.0086 21.46 28.0086 6.53717 27.9712 6.06817C27.6959 2.56001 25.5364 0.538172 22.6909 0.128672C22.0387 0.0341723 21.9081 0.0061723 18.5621 0.00033896C6.69356 0.0061723 4.0919 -0.522328 1.7504 1.90551Z" fill="url(#paint0_linear)"/>
<path d="M13.9981 3.66232C9.76192 3.66232 5.73926 3.28549 4.20276 7.22882C3.56809 8.85749 3.66026 10.9727 3.66026 14.0013C3.66026 16.659 3.57509 19.1568 4.20276 20.7727C5.73576 24.7183 9.79109 24.3403 13.9958 24.3403C18.0523 24.3403 22.2348 24.7627 23.7899 20.7727C24.4258 19.1277 24.3324 17.044 24.3324 14.0013C24.3324 9.96232 24.5553 7.35482 22.5964 5.39715C20.6131 3.41382 17.9309 3.66232 13.9934 3.66232H13.9981ZM13.0718 5.52549C21.9081 5.51149 23.0328 4.52916 22.4121 18.1757C22.1916 23.0022 18.5166 22.4725 13.9993 22.4725C5.76259 22.4725 5.52576 22.2368 5.52576 13.9967C5.52576 5.66082 6.17909 5.53016 13.0718 5.52316V5.52549ZM19.5164 7.24165C18.8316 7.24165 18.2763 7.79699 18.2763 8.48182C18.2763 9.16666 18.8316 9.72199 19.5164 9.72199C20.2013 9.72199 20.7566 9.16666 20.7566 8.48182C20.7566 7.79699 20.2013 7.24165 19.5164 7.24165ZM13.9981 8.69182C11.0663 8.69182 8.68976 11.0695 8.68976 14.0013C8.68976 16.9332 11.0663 19.3097 13.9981 19.3097C16.9299 19.3097 19.3053 16.9332 19.3053 14.0013C19.3053 11.0695 16.9299 8.69182 13.9981 8.69182ZM13.9981 10.555C18.5539 10.555 18.5598 17.4477 13.9981 17.4477C9.44342 17.4477 9.43642 10.555 13.9981 10.555Z" fill="white"/>
</g>
<defs>
<linearGradient id="paint0_linear" x1="1.80409" y1="26.2119" x2="27.8271" y2="3.68931" gradientUnits="userSpaceOnUse">
<stop stop-color="#FFDD55"/>
<stop offset="0.5" stop-color="#FF543E"/>
<stop offset="1" stop-color="#C837AB"/>
</linearGradient>
<clipPath id="clip0">
<rect width="28" height="28" fill="white"/>
</clipPath>
</defs>
</svg>
