<svg width="16" height="18" viewBox="0 0 16 18" fill="none" xmlns="http://www.w3.org/2000/svg">
<path fill-rule="evenodd" clip-rule="evenodd" d="M8.02408 0.666546C4.18322 0.653497 1.04599 3.7093 0.920605 7.5343L0.916748 7.77172C0.980589 9.64656 1.61848 11.4337 2.74198 12.9062L3.00585 13.2505C4.07825 14.6141 5.35268 15.811 6.78364 16.7974L7.12818 17.0294L7.17845 17.0688C7.66891 17.4212 8.33113 17.4212 8.82159 17.0688L8.86344 17.0344C9.99888 16.2981 11.0459 15.4329 11.9838 14.4559C13.8906 12.4375 15.0398 10.1759 15.0832 7.87899L15.0833 7.79371C15.0963 3.94311 12.0499 0.796229 8.23671 0.670413L8.02408 0.666546ZM8.01975 1.93106C11.1685 1.94183 13.725 4.45769 13.82 7.59077L13.8227 7.86702C13.7862 9.7927 12.7779 11.7769 11.0722 13.5825C10.2025 14.4884 9.22732 15.2937 8.16967 15.9785L8.09918 16.0315C8.04222 16.081 7.95773 16.081 7.90077 16.0315L7.83226 15.9798C6.25668 14.9511 4.87385 13.6524 3.74701 12.1429C2.83935 10.9533 2.3015 9.531 2.19324 8.04725L2.17733 7.74973C2.18803 4.59335 4.69614 2.02899 7.81958 1.93377L8.01975 1.93106ZM7.99999 5.16758C6.50966 5.16758 5.30151 6.37946 5.30151 7.87438C5.30151 9.36931 6.50966 10.5812 7.99999 10.5812C9.49031 10.5812 10.6985 9.36931 10.6985 7.87438C10.6985 6.37946 9.49031 5.16758 7.99999 5.16758ZM7.99994 6.43209C8.79404 6.43209 9.43779 7.07783 9.43779 7.87438C9.43779 8.67093 8.79404 9.31667 7.99994 9.31667C7.20584 9.31667 6.56209 8.67093 6.56209 7.87438C6.56209 7.07783 7.20584 6.43209 7.99994 6.43209Z" fill="#666666"/>
</svg>
