<svg width="10" height="14" viewBox="0 0 10 14" fill="none" xmlns="http://www.w3.org/2000/svg">
<path fill-rule="evenodd" clip-rule="evenodd" d="M2.68767 0.95801C4.14424 0.111679 5.9346 0.126472 7.37751 0.996759C8.80623 1.88477 9.67456 3.46961 9.66647 5.17446C9.63322 6.86812 8.70212 8.46016 7.53823 9.69089C6.86648 10.4044 6.115 11.0354 5.29915 11.5709C5.21512 11.6194 5.12309 11.652 5.02758 11.6668C4.93565 11.6629 4.84613 11.6358 4.76709 11.5878C3.52154 10.7832 2.42881 9.75619 1.54147 8.55614C0.798978 7.55441 0.377142 6.34417 0.333253 5.08978C0.332289 3.38166 1.2311 1.80434 2.68767 0.95801ZM3.52936 5.79668C3.77438 6.40072 4.35271 6.79472 4.99432 6.79473C5.41466 6.79775 5.81871 6.62938 6.11646 6.32715C6.41421 6.02491 6.58091 5.61392 6.57942 5.18575C6.58166 4.53219 6.19689 3.94171 5.60476 3.69001C5.01263 3.43832 4.32995 3.57506 3.87546 4.03639C3.42098 4.49773 3.28435 5.19265 3.52936 5.79668Z" fill="#666666"/>
<ellipse opacity="0.4" cx="4.99984" cy="13.0002" rx="3.33333" ry="0.666668" fill="#666666"/>
</svg>
